<?xml version="1.0" encoding="UTF-8"?>
<svg id="Layer_2" data-name="Layer 2" xmlns="http://www.w3.org/2000/svg" viewBox="0 0 279.88 281.55">
  <defs>
    <style>
      .cls-1 {
        fill: #00a79d;
      }

      .cls-2 {
        fill: #c8d9db;
      }

      .cls-3 {
        fill: #231f20;
      }
    </style>
  </defs>
  <g id="Logo_forslag" data-name="Logo forslag">
    <g>
      <path class="cls-2" d="M237.01,48.35c.5-5.65-6.81-9.73-8.22-4.23-1.32,5.17-8.06,12.67-9.55,14.1-2.08,1.99-36.37,29.66-47.11,20.69s-6.11-32.22,10.35-51.92c.03-.04,.06-.08,.1-.12,5.96-7.11,3.65-10.68-5.26-8.1-10.12,2.93-9.34,8.98-18.61,20.09-3.13,3.75-6.17,7.62-8.12,12.35-.13,.3-.07,1.3-.07,1.56,.01,.81,2.09,19.77,.9,32.69-1.17,12.74-1.39,23.12-4.79,31.39-1.01,2.46,.22,5.37,2.69,6.35,20.36,8.09,31.47-13.11,48.47-33.48,8.63-10.33,37.51-22.1,39.21-41.38h0Z"/>
      <g>
        <path class="cls-2" d="M176.21,49.72c-1.55,9.44,2.51,17.96,9.07,19.04,6.56,1.08,18.31-.87,19.86-10.3,1.55-9.44,1.57-21.27-4.99-22.35s-22.39,4.18-23.94,13.61h0Z"/>
        <path class="cls-1" d="M174.11,97.94s6.39,.74,9.14-.28l.61-.23c.77-.36,1.45-.96,1.9-1.81,.77-1.46,.57-3.3-.51-4.55-1.13-1.31-2.83-1.7-4.31-1.25,.19-1.53-.48-3.14-1.97-4.03s-3.26-.74-4.57,.27c-.77,.59-1.24,1.36-1.46,2.18l-.12,.64c-.54,2.88,1.28,9.06,1.28,9.06h.01Z"/>
      </g>
    </g>
    <g>
      <path class="cls-2" d="M150.85,2.78c-3.24-4.66-11.47-3.1-9.02,2.02,2.3,4.82,1.94,14.89,1.71,16.94-.32,2.86-8.9,46.08-22.9,46.08s-25.34-20.81-25.34-46.49v-.15c.02-9.28-4.04-10.54-9.23-2.85-5.89,8.74-1.41,12.88-1.41,27.35,0,4.88,.15,9.8,1.68,14.68,.1,.31,.78,1.04,.95,1.24,.52,.61,14.28,13.84,21.64,24.51,7.27,10.53,13.75,18.64,16.44,27.17,.8,2.53,3.61,3.98,6.13,3.15,20.81-6.84,15.75-30.24,15.75-56.76,0-13.46,14.63-41,3.58-56.9h.02Z"/>
      <g>
        <path class="cls-2" d="M105.05,45.59c4.86,8.24,13.44,12.18,19.16,8.8s13.5-12.4,8.64-20.64-12.43-17.33-18.15-13.96c-5.72,3.38-14.51,17.56-9.65,25.8h0Z"/>
        <path class="cls-1" d="M134.35,83.96s5.38-3.53,6.84-6.07l.32-.57c.36-.77,.5-1.66,.3-2.61-.34-1.61-1.68-2.9-3.31-3.16-1.71-.28-3.26,.51-4.11,1.8-.83-1.3-2.38-2.1-4.09-1.84s-2.98,1.52-3.34,3.13c-.21,.94-.08,1.84,.28,2.61l.32,.57c1.43,2.56,6.78,6.13,6.78,6.13h0Z"/>
      </g>
    </g>
    <g>
      <path class="cls-2" d="M242.76,233.65c5.67-.18,8.85-7.93,3.22-8.66-5.29-.69-13.54-6.49-15.14-7.8-2.23-1.82-33.79-32.57-26.17-44.3,7.62-11.74,31.26-9.91,52.79,4.08,.04,.03,.08,.05,.13,.08,7.77,5.07,11.04,2.35,7.41-6.18-4.12-9.69-10.03-8.2-22.17-16.08-4.1-2.66-8.3-5.21-13.23-6.59-.32-.09-1.3,.09-1.56,.12-.8,.11-19.38,4.43-32.35,4.8-12.79,.36-23.12,1.38-31.74-1.01-2.56-.71-5.3,.86-5.98,3.43-5.6,21.18,16.78,29.68,39.02,44.13,11.29,7.33,26.42,34.6,45.77,33.99h0Z"/>
      <g>
        <path class="cls-2" d="M234.15,173.45c-9.55-.41-17.53,4.64-17.82,11.28-.29,6.64,3.05,18.08,12.6,18.49s21.31-.98,21.59-7.62c.29-6.64-6.82-21.74-16.37-22.15Z"/>
        <path class="cls-1" d="M186.02,177.12s.02,6.43,1.36,9.04l.3,.58c.45,.72,1.12,1.33,2.03,1.67,1.54,.59,3.34,.17,4.45-1.05,1.17-1.28,1.35-3.01,.73-4.43,1.54,0,3.06-.85,3.77-2.43s.35-3.33-.81-4.5c-.68-.69-1.5-1.07-2.34-1.19l-.65-.05c-2.93-.19-8.84,2.35-8.84,2.35h0Z"/>
      </g>
    </g>
    <g>
      <path class="cls-2" d="M277.72,142.66c4.24-3.77,1.71-11.75-3.08-8.71-4.51,2.86-14.55,3.7-16.62,3.72-2.88,.03-46.81-3.34-48.48-17.23-1.67-13.89,17.64-27.64,43.13-30.71,.05,0,.1,0,.15-.02,9.21-1.09,9.98-5.27,1.73-9.5-9.38-4.8-12.96,.14-27.32,1.87-4.85,.58-9.71,1.32-14.38,3.42-.3,.13-.94,.9-1.12,1.09-.55,.59-12.04,15.83-21.75,24.41-9.59,8.47-16.86,15.88-25.01,19.57-2.42,1.1-3.52,4.06-2.4,6.46,9.28,19.84,31.9,12.03,58.24,8.86,13.37-1.61,42.46,9.63,56.92-3.24h-.01Z"/>
      <g>
        <path class="cls-2" d="M229.75,102.3c-7.6,5.81-10.48,14.79-6.45,20.08,4.04,5.28,13.92,11.92,21.52,6.12s15.73-14.41,11.69-19.69-19.17-12.31-26.76-6.51h0Z"/>
        <path class="cls-1" d="M195.16,135.97s4.14,4.92,6.84,6.07l.6,.25c.81,.27,1.71,.3,2.63-.01,1.56-.53,2.67-2.01,2.74-3.66,.07-1.73-.89-3.18-2.28-3.87,1.19-.98,1.8-2.61,1.33-4.28s-1.87-2.78-3.51-2.94c-.96-.1-1.84,.14-2.56,.59l-.53,.38c-2.37,1.73-5.28,7.47-5.28,7.47h.02Z"/>
      </g>
    </g>
    <g>
      <path class="cls-2" d="M33.14,230.43c-1.05,5.58,5.83,10.35,7.76,5.01,1.82-5.02,9.26-11.82,10.88-13.1,2.26-1.78,39.09-25.96,48.91-15.98,9.81,9.98,2.93,32.66-15.38,50.66l-.11,.11c-6.62,6.49-4.68,10.27,4.44,8.57,10.36-1.93,10.17-8.03,20.49-18.18,3.48-3.43,6.88-6.98,9.29-11.49,.15-.29,.2-1.29,.22-1.55,.07-.8-.14-19.88,2.3-32.62,2.41-12.57,3.64-22.87,7.84-30.77,1.25-2.35,.31-5.36-2.05-6.58-19.47-10.04-32.6,9.97-51.52,28.57-9.6,9.44-39.49,18.32-43.07,37.35h0Z"/>
      <g>
        <path class="cls-2" d="M93.79,235.02c2.47-9.24-.74-18.12-7.16-19.83s-18.31-.93-20.77,8.31c-2.47,9.24-3.65,21.01,2.78,22.73s22.7-1.97,25.16-11.21h-.01Z"/>
        <path class="cls-1" d="M100.59,187.23s-6.29-1.37-9.12-.62l-.63,.17c-.8,.28-1.54,.81-2.07,1.62-.91,1.38-.89,3.23,.07,4.58,1,1.42,2.65,1.97,4.16,1.67-.34,1.51,.17,3.17,1.56,4.21s3.17,1.06,4.57,.18c.82-.51,1.37-1.23,1.67-2.03l.19-.63c.82-2.82-.39-9.14-.39-9.14h-.01Z"/>
      </g>
    </g>
    <g>
      <path class="cls-2" d="M143.9,279.69c4.03,4,11.84,.99,8.51-3.61-3.13-4.32-4.58-14.3-4.73-16.36-.2-2.87,.47-46.93,14.23-49.44s28.67,15.92,33.29,41.17c0,.05,.02,.1,.03,.15,1.65,9.13,5.87,9.64,9.59,1.14,4.22-9.65-.93-12.92-3.54-27.16-.88-4.8-1.91-9.61-4.29-14.14-.15-.29-.95-.88-1.16-1.05-.63-.51-16.53-11.04-25.7-20.22-9.04-9.05-16.88-15.86-21.06-23.76-1.24-2.35-4.26-3.27-6.6-2-19.24,10.47-10.06,32.58-5.28,58.67,2.42,13.24-7.01,42.97,6.72,56.61h0Z"/>
      <g>
        <path class="cls-2" d="M181.25,229.33c-6.26-7.23-15.41-9.56-20.43-5.21s-11.05,14.63-4.79,21.86c6.26,7.23,15.34,14.82,20.37,10.46,5.02-4.35,11.12-19.88,4.86-27.11h0Z"/>
        <path class="cls-1" d="M145.53,196.87s-4.66,4.44-5.64,7.2l-.21,.62c-.22,.82-.19,1.73,.18,2.62,.63,1.53,2.17,2.55,3.82,2.52,1.73-.03,3.12-1.09,3.72-2.51,1.05,1.13,2.72,1.64,4.36,1.07s2.66-2.03,2.72-3.68c.04-.97-.25-1.82-.74-2.52l-.42-.51c-1.87-2.26-7.78-4.81-7.78-4.81h0Z"/>
      </g>
    </g>
    <g>
      <path class="cls-2" d="M51.16,32.62c-5.56-1.14-10.44,5.67-5.13,7.69,4.99,1.89,11.68,9.44,12.93,11.08,1.75,2.29,25.36,39.49,15.23,49.15s-32.7,2.43-50.42-16.15c-.03-.04-.07-.07-.1-.11-6.39-6.72-10.2-4.84-8.64,4.31,1.77,10.38,7.87,10.29,17.86,20.76,3.37,3.53,6.87,6.99,11.35,9.47,.29,.16,1.28,.22,1.55,.24,.8,.08,19.88,.16,32.58,2.8,12.53,2.6,22.81,3.99,30.65,8.31,2.33,1.28,5.36,.39,6.61-1.95,10.34-19.31-9.47-32.75-27.78-51.95-9.29-9.74-17.72-39.77-36.68-43.64h0Z"/>
      <g>
        <path class="cls-2" d="M45.64,93.19c9.2,2.61,18.13-.46,19.94-6.86s1.21-18.29-7.99-20.9c-9.2-2.61-20.96-3.97-22.77,2.43-1.81,6.39,1.62,22.72,10.82,25.33h0Z"/>
        <path class="cls-1" d="M93.32,100.72s1.46-6.27,.76-9.11l-.16-.64c-.27-.81-.79-1.55-1.58-2.1-1.36-.93-3.21-.94-4.58,0-1.43,.98-2.01,2.62-1.73,4.14-1.5-.37-3.17,.12-4.23,1.5s-1.11,3.16-.25,4.57c.5,.83,1.21,1.39,2,1.7l.63,.2c2.8,.86,9.14-.25,9.14-.25h0Z"/>
      </g>
    </g>
    <g>
      <path class="cls-2" d="M3.4,119.34c-4.99,2.71-4.35,11.05,1.01,9.18,5.04-1.76,15.01-.28,17.03,.17,2.81,.63,44.81,13.94,43.26,27.85s-23.49,22.88-49,20.05c-.05,0-.1-.01-.15-.02-9.22-1.04-10.92,2.85-3.85,8.85,8.03,6.82,12.65,2.82,27.03,4.42,4.85,.54,9.75,.94,14.78-.05,.32-.06,1.12-.66,1.34-.81,.67-.45,15.33-12.66,26.75-18.8,11.27-6.06,20.04-11.61,28.82-13.34,2.61-.51,4.35-3.15,3.81-5.75-4.5-21.44-28.31-19-54.68-21.93-13.38-1.49-39.14-19.07-56.15-9.84v.02Z"/>
      <g>
        <path class="cls-2" d="M40.89,169.59c8.72-3.92,13.59-12.01,10.86-18.07-2.72-6.06-10.83-14.79-19.56-10.87-8.72,3.92-18.6,10.43-15.88,16.5s15.85,16.36,24.57,12.45h.01Z"/>
        <path class="cls-1" d="M82.26,144.71s-2.91-5.74-5.28-7.47l-.53-.38c-.72-.44-1.6-.68-2.56-.59-1.64,.16-3.06,1.35-3.51,2.94-.47,1.67,.14,3.3,1.33,4.28-1.38,.69-2.35,2.13-2.28,3.87s1.18,3.13,2.74,3.66c.92,.31,1.82,.28,2.63,.01l.6-.25c2.7-1.14,6.84-6.07,6.84-6.07h.02Z"/>
      </g>
    </g>
    <g>
      <path class="cls-3" d="M53.86,141.57c0,.24-.1,.36-.3,.36h-8.32c-.38,0-.62-.1-.71-.3-.08-.08-1.84-2.3-5.28-6.65-2.23-2.86-4.42-5.37-6.59-7.51-2.09-2.11-3.47-3.43-4.14-3.96-.32-.22-.59-.25-.8-.09l-2.12,1.85c-.12,.28-.18,.48-.18,.6,0,.06,0,1.33,.03,3.82,.02,2.48,.03,3.96,.03,4.44,0,4.15,.26,6.23,.78,6.23h4.95c.16,0,.24,.12,.24,.36v.92c0,.2-.1,.3-.3,.3h-14.4c-.3,0-.45-.08-.45-.24v-1.04c0-.1,.02-.17,.06-.22s.15-.07,.33-.07h3.73c.32,0,.48-.21,.48-.63,0-.08,0-3.07-.03-8.99-.02-5.91-.03-9.04-.03-9.37s0-2.47-.03-6.39-.03-5.95-.03-6.07c0-3.95-.33-5.93-.98-5.93h-4.32c-.22,0-.33-.1-.33-.3v-1.04c0-.16,.11-.24,.33-.24h14.52c.16,0,.24,.08,.24,.24v.98c0,.24-.08,.36-.24,.36h-4.14c-.2,0-.3,.15-.3,.45-.12,.6-.18,7.01-.18,19.23,0,.54,.1,.76,.3,.66,3.68-3.42,7.46-6.9,11.36-10.43,1.87-1.65,3.72-3.56,5.54-5.72,1.31-1.57,1.97-2.77,1.97-3.61,0-.38-.23-.57-.69-.57h-3.73c-.16,0-.24-.1-.24-.3v-1.04c0-.16,.1-.24,.3-.24h12.46c.24,0,.36,.08,.36,.24v.98c0,.24-.08,.36-.24,.36h-2.98c-.54,0-1.02,.25-1.46,.75-3.77,4.05-6.63,6.91-8.55,8.55-1.35,1.15-3.97,3.68-7.87,7.57-.32,.4-.41,.66-.27,.78,1.25,.97,2.72,2.28,4.41,3.9,2.22,2.15,5.04,5.35,8.44,9.6,2.23,2.8,3.51,4.28,3.85,4.44,1.21,1.23,2.19,1.85,2.92,1.85h2.32c.2,0,.3,.1,.3,.3v.86l-.02-.03Z"/>
      <path class="cls-3" d="M95.72,141.57c0,.24-.08,.36-.24,.36h-9.69c-.22,0-.47-.12-.74-.36-.75-.66-2.15-2.33-4.17-5.01-1.07-1.45-2.15-2.9-3.22-4.35-1.19-1.79-2.84-4.57-4.95-8.35-.14-.34-.3-.51-.48-.51-.93,0-2.58-.12-4.95-.36-.32-.1-.48,0-.48,.3,0,.38,.01,1.63,.03,3.77,.02,2.14,.03,4.39,.03,6.75,0,4.35,.45,6.53,1.34,6.53h5.31c.2,0,.3,.1,.3,.3v.98c0,.2-.08,.3-.24,.3h-15.8c-.18,0-.29-.03-.33-.09-.04-.06-.06-.13-.06-.21v-.92c0-.18,.03-.28,.09-.31s.14-.04,.24-.04h3.9c.32,0,.48-.31,.48-.92v-28.26c-.04-5.47-.39-8.2-1.04-8.2h-3.79c-.2,0-.3-.08-.3-.24v-1.1c0-.16,.08-.24,.24-.24h8.91c.28,0,1.42-.04,3.41-.12,2-.08,3.12-.12,3.35-.12,1.29,0,2.55,.1,3.78,.3,2.74,.44,4.95,1.46,6.62,3.07,1.95,1.85,2.92,4.18,2.92,7.01,0,3.22-.95,5.86-2.86,7.93-1.17,1.27-3.09,2.35-5.75,3.25-.16,.08-.22,.2-.18,.36,.88,2.28,2.89,5.22,6.05,8.79,1.65,1.87,2.85,3.21,3.61,4.02,1.33,1.39,2.46,2.43,3.4,3.13,1.27,.93,2.86,1.4,4.77,1.4,.32,0,.48,.08,.48,.24v.92h.01Zm-14.46-28.47c0-2.64-.88-4.8-2.62-6.47-2.44-2.31-5.98-3.46-10.61-3.46-.67,0-1.04,.14-1.1,.42,0,5.7-.04,9.26-.12,10.67v6.8c0,.22,.14,.36,.42,.42,.46,.08,1.72,.12,3.78,.12,.85,0,1.81-.08,2.88-.24,1.06-.16,1.55-.24,1.45-.24,3.95-1.03,5.93-3.71,5.93-8.02h-.01Z"/>
      <path class="cls-3" d="M137.81,120.79c0,6.28-1.51,11.19-4.53,14.73-1.05,1.25-1.93,2.16-2.62,2.71-1.45,1.15-3.34,2.16-5.66,3.01-1.87,.7-4.29,1.04-7.27,1.04-4.75,0-8.33-.61-10.73-1.82-1.75-.87-3.22-2-4.41-3.37-1.47-1.67-2.52-3.51-3.16-5.51-.78-2.4-1.16-5.57-1.16-9.51,0-2.68,.37-5.23,1.1-7.63,.87-2.84,2.18-5.24,3.9-7.18,1.73-1.95,4.21-3.56,7.45-4.83,2.28-.89,4.83-1.34,7.63-1.34,4.25,0,7.5,.51,9.75,1.52,2.52,1.13,4.5,2.68,5.93,4.65,2.52,3.44,3.79,7.95,3.79,13.53h-.01Zm-4.71,1.61c0-2.86-.33-5.37-.98-7.51-.73-2.48-1.91-4.64-3.52-6.47-1.47-1.67-3.22-2.93-5.25-3.79-2.35-.97-4.69-1.46-7.03-1.46-3.04,0-5.24,.49-6.59,1.46-2.47,1.75-4.15,3.68-5.07,5.78-1.23,2.78-1.85,6.18-1.85,10.2,0,5.92,1.1,10.58,3.31,13.98,1.33,2.07,3.33,3.72,5.99,4.95,2.09,.97,4.36,1.46,6.82,1.46,2.78,0,5.35-.78,7.69-2.32,1.83-1.19,3.4-3.24,4.71-6.14,1.17-2.64,1.76-6.02,1.76-10.13h.01Z"/>
      <path class="cls-3" d="M172.18,113.55c0,3.02-1.03,5.62-3.1,7.81-2.17,2.29-5.37,3.43-9.6,3.43-1.97,0-4.26-.35-6.89-1.04-.16-.04-.24,.02-.24,.18v9.69c0,4.53,.41,6.8,1.22,6.8h5.37c.24,0,.36,.12,.36,.36v.81c0,.24-.06,.36-.18,.36h-16.07c-.16,0-.24-.08-.24-.24v-.92c0-.24,.1-.36,.3-.36h4.11c.32,0,.48-.25,.48-.75v-30.7c0-3.7-.25-5.54-.75-5.54h-4.08c-.28,0-.42-.08-.42-.24v-1.04c0-.22,.12-.33,.36-.33h7.45c.34,0,1.65-.03,3.95-.09s3.5-.09,3.62-.09c2.19,0,3.97,.15,5.37,.45,2.28,.46,4.28,1.57,5.99,3.34,1.99,2.07,2.98,4.78,2.98,8.14v-.03Zm-4.67,.42c0-2.64-.98-4.94-2.95-6.89-2.31-2.33-5.53-3.49-9.69-3.49-1.15,0-1.81,.02-1.97,.06s-.26,.24-.3,.6c-.12,1.05-.18,4.11-.18,9.18,0,.18-.01,1.59-.03,4.22s-.03,4.01-.03,4.13c0,.26,.14,.45,.42,.57,1.27,.48,3.18,.72,5.72,.72,2.98,0,5.19-.72,6.62-2.15,1.59-1.57,2.39-3.88,2.39-6.95h0Z"/>
      <path class="cls-3" d="M245.02,133.49c0,.3-.17,.83-.51,1.61-.83,1.99-2.22,3.7-4.14,5.13-.71,.52-1.63,.78-2.74,.78-.88,0-2.09-.22-3.65-.67s-3.46-1.36-5.71-2.73c-.36-.24-.69-.26-1.01-.06-2.09,1.21-3.47,1.95-4.14,2.21-2.25,.8-5.27,1.19-9.06,1.19-6.48,0-11.18-1.42-14.1-4.26-2.52-2.46-3.79-5.94-3.79-10.43,0-2.64,.6-5.13,1.79-7.45,.6-1.17,1.43-2.2,2.5-3.07,.81-.66,1.65-1.18,2.5-1.58,.2-.1,.17-.34-.09-.72-.44-.71-.82-1.49-1.13-2.32-.54-1.33-.81-2.47-.81-3.43,0-.52,.29-1.14,.86-1.88,1.57-2.07,3.52-3.7,5.84-4.89,.24-.12,.74-.18,1.52-.18,.85,0,1.99,.18,3.4,.54,1.53,.38,2.6,.79,3.22,1.22,.38,.28,.56,.55,.54,.8-.06,.91-.31,1.97-.74,3.16-.28,.82-.46,1.22-.54,1.22s-.28-.22-.6-.66c-.38-.54-.99-.98-1.85-1.34-1.97-.85-4.04-1.28-6.23-1.28-1.75,0-2.62,.63-2.62,1.88,0,.78,.37,1.79,1.1,3.04,.67,1.17,2.12,3.19,4.32,6.05,2.68,3.46,4.7,5.72,6.05,6.8,.24,.18,.42,.25,.54,.21,.1-.04,.15-.16,.15-.36-.12-3.7,.81-6.32,2.8-7.87,1.47-1.13,3.51-1.7,6.11-1.7,1.73,0,3.93,.35,6.59,1.04,2.19,.56,4.46,.83,6.83,.83,1.39,0,2.49-.28,3.31-.83,1.03-.74,1.55-1.69,1.55-2.86,0-.2-.01-.39-.03-.57-.04-.32,0-.52,.12-.6,.24-.18,.39-.29,.45-.33,.04-.04,.12,.02,.24,.18,.32,.54,.48,1.29,.48,2.27,0,1.81-.35,3.11-1.04,3.9-1.33,1.55-2.63,2.33-3.91,2.33-1.09,0-3.19-.39-6.29-1.16-.22-.06-.35-.05-.39,.03-.06,.08-.01,.24,.15,.48,1.27,1.91,1.91,4,1.91,6.29,0,4.03-1.12,7.49-3.37,10.37-.16,.18-.1,.38,.18,.6,.48,.5,1.86,1.11,4.14,1.85,1.27,.4,2.45,.6,3.55,.6,1.89,0,3.44-1.01,4.65-3.04,.24-.42,.42-.67,.54-.74,.08,.02,.18,.06,.3,.12,.18,.16,.27,.26,.27,.3v-.02Zm-19.33,3.19c.18-.16,.14-.32-.12-.48-2.24-1.51-4.32-2.98-6.23-4.41-2.25-1.69-4.52-3.75-6.83-6.17-3.56-3.74-6.32-7.11-8.29-10.14-.2-.28-.41-.36-.63-.24-.97,.52-1.82,1.42-2.53,2.71-.84,1.49-1.25,3.11-1.25,4.86,0,1.39,.12,2.73,.36,4.02,.48,2.46,1.7,4.68,3.67,6.65,2.21,2.21,4.73,3.68,7.57,4.41,1.59,.4,3.69,.6,6.29,.6,3.97,0,6.64-.61,7.99-1.82h0Zm7.33-12.93c0-2.56-.81-4.66-2.44-6.29-1.91-1.83-4.18-2.74-6.83-2.74-2.17,0-3.75,.49-4.77,1.46-1.09,1.05-1.64,2.55-1.64,4.5,0,2.19,.41,3.7,1.22,4.53,.91,.95,2.51,2.3,4.8,4.02,2.44,1.85,4.34,3.13,5.69,3.85,.5,.26,.88,.22,1.16-.12,1.87-2.27,2.8-5.34,2.8-9.21h.01Z"/>
      <path class="cls-3" d="M65.76,191.26c0,.2-.1,.3-.3,.3h-13.62c-.28,0-.42-.1-.42-.3v-.98c0-.2,.1-.3,.3-.3h3.22c.5,0,.74-.25,.74-.75v-15.26c0-7.85-.08-13.1-.24-15.74-.04-.58-.14-.86-.3-.86-.12,0-.27,.19-.45,.57-.42,.85-4.44,9.99-12.07,27.39-1.15,2.58-2.07,4.78-2.74,6.59-.2,.34-.37,.51-.51,.51-.28,0-.46-.15-.54-.45-2.74-5.6-5.57-11.42-8.5-17.44-1.63-3.54-3.89-8.22-6.77-14.04-.18-.34-.34-.51-.48-.51-.16,0-.25,.21-.27,.63-.54,7.93-.81,13.72-.81,17.38v6.74c0,3.5,.48,5.25,1.43,5.25h3.52c.22,0,.33,.08,.33,.24v1.04c0,.2-.07,.3-.21,.3h-10.79c-.24,0-.36-.08-.36-.24v-.92c0-.28,.1-.42,.3-.42h3.1c.54,0,.81-.45,.81-1.34,0-3.1,.14-8.78,.42-17.05,.1-1.55,.19-3.11,.27-4.68,.16-3.08,.24-5.73,.24-7.96,0-2.9-1-4.85-3.01-5.84-.44-.22-1.33-.39-2.68-.51-.16,0-.24-.08-.24-.24v-1.1c0-.16,.08-.24,.24-.24h7.87c.36,0,.61,.14,.74,.42,1.85,3.66,3.85,7.63,5.99,11.92,3.14,6.76,6.54,13.88,10.2,21.37,.34,.5,.6,.58,.78,.24,2.22-5.07,4.61-10.44,7.15-16.13,2.46-5.68,4.99-11.44,7.57-17.26,.2-.38,.51-.57,.92-.57h7.63c.2,0,.3,.08,.3,.24v1.04c0,.2-.06,.3-.18,.3h-2.95c-.6,0-.95,.68-1.07,2.03-.14,1.27-.21,6.26-.21,14.96,0,6.4,.07,10.98,.21,13.74,.2,4.43,.79,6.65,1.76,6.65h3.43c.16,0,.24,.1,.24,.3v.98h.01Z"/>
      <path class="cls-3" d="M101.41,187.29c-.56,1.13-1.22,2.44-2,3.91-.16,.24-.37,.36-.63,.36h-28.2c-.2,0-.3-.12-.3-.36v-.92c0-.2,.08-.3,.24-.3h4.41c.4,0,.6-.21,.6-.63,0-.18-.02-3.23-.06-9.17-.04-5.93-.06-8.99-.06-9.18s-.01-2.24-.03-6.14c-.02-3.9-.03-5.98-.03-6.21,0-4.03-.39-6.05-1.16-6.05h-3.61c-.2,0-.3-.1-.3-.3v-.98c0-.2,.12-.3,.36-.3h26.68c.36,0,.84-.02,1.45-.06,.61-.04,.9-.06,.88-.06,.26,0,.36,.1,.3,.3-.28,1.09-.63,2.35-1.04,3.79-.16,.46-.32,.69-.48,.69l-.42-.45c-.74-.72-1.9-1.22-3.49-1.52-2.23-.4-6.95-.64-14.16-.72-.24,0-.4,.12-.49,.36s-.13,5.17-.13,14.79c0,.4,.17,.6,.51,.6h14.58c.28,0,.44-.15,.49-.45,.05-.3,.13-.93,.24-1.91s.17-1.51,.19-1.61c0-.38,.12-.57,.36-.57h.45c.24,0,.36,.17,.36,.51,0,.08-.04,.91-.12,2.49s-.12,2.52-.12,2.82,.02,1.34,.06,3.13,.06,2.74,.06,2.86c0,.44-.11,.66-.33,.66h-.48c-.2,0-.32-.14-.36-.42-.08-1.27-.18-2.78-.3-4.53-.06-.4-.25-.6-.57-.6-.18,0-2.63-.04-7.35-.12s-7.13-.12-7.23-.12c-.26,0-.39,.18-.39,.54v11.24c0,4.77,.52,7.15,1.55,7.15,9.3,0,15.48-.72,18.54-2.15,.73-.42,1.18-.67,1.34-.75,.2,0,.26,.13,.18,.39h.01Z"/>
      <path class="cls-3" d="M142.22,170.99c0,8.25-2.75,14.21-8.26,17.89-1.99,1.33-4.26,2.21-6.83,2.62-1.51,.24-3.78,.36-6.82,.36-1.41,0-3.24-.05-5.5-.15-2.25-.1-4.13-.15-5.62-.15h-3.31c-.2,0-.3-.1-.3-.3,0-.06-.01-.2-.03-.43-.02-.23-.03-.41-.03-.55,0-.2,.12-.3,.36-.3h4.17c.32,0,.48-.31,.48-.92,0-.3-.03-2.92-.09-7.85-.06-4.94-.09-7.63-.09-8.06l.03-7.33c.04-4.33,.05-6.72,.03-7.15-.12-4.03-.49-6.05-1.1-6.05h-4.2c-.22,0-.33-.1-.33-.3v-.98c0-.2,.13-.3,.39-.3h18.42c3.06,0,5.48,.39,7.27,1.16,1.19,.52,2.07,.94,2.62,1.28,1.25,.73,2.47,1.69,3.67,2.86,3.38,3.38,5.07,8.27,5.07,14.67v-.02Zm-4.14,4.02c0-5.98-1.55-10.91-4.65-14.79-2.19-2.72-4.59-4.61-7.21-5.66-2.72-1.09-5.41-1.64-8.05-1.64-1.11,0-1.89,.05-2.33,.15-.44,.1-.66,.5-.66,1.19,0,.3-.01,2.75-.03,7.36s-.03,7.22-.03,7.84v12.07c0,5.17,.32,7.81,.95,7.93,1.57,.3,4.24,.45,8.02,.45,4.17,0,7.38-1.08,9.63-3.25,2.9-2.76,4.35-6.65,4.35-11.66h0Z"/>
      <path class="cls-3" d="M162.43,191.32c0,.16-.06,.24-.18,.24h-14.46c-.18,0-.29-.03-.33-.09s-.06-.13-.06-.21v-.92c0-.18,.03-.28,.09-.31s.13-.04,.21-.04h4.05c.28,0,.42-.29,.42-.86l-.06-30.82c0-3.76-.35-5.63-1.04-5.63h-3.78c-.28,0-.42-.1-.42-.3v-1.04c0-.16,.1-.24,.3-.24h14.46c.18,0,.27,.08,.27,.24v1.1c0,.16-.11,.24-.33,.24h-4.2c-.36,0-.54,.21-.54,.63-.04,18.05-.06,27.37-.06,27.96,0,2.94,.01,4.62,.03,5.04,.14,2.46,.54,3.7,1.19,3.7h4.2c.16,0,.24,.08,.24,.24v1.07Z"/>
      <path class="cls-3" d="M203.65,185.68c.1,.18,.08,.35-.06,.51-1.49,1.61-3.95,3.03-7.39,4.26-2.7,.97-6.1,1.46-10.2,1.46-3.48,0-6.23-.35-8.26-1.04-2.09-.72-4.11-2.04-6.08-3.97-3.26-3.16-4.89-7.98-4.89-14.46,0-3.6,.93-7.2,2.8-10.82,1.51-2.9,3.8-5.36,6.89-7.36,4.01-2.6,9.17-3.9,15.47-3.9,2.36,0,4.52,.1,6.47,.3,2.28,.24,3.73,.53,4.32,.86,.12,.04,.18,.14,.18,.3-.02,.32-.12,1.15-.3,2.5-.12,1.09-.22,2.05-.3,2.86-.04,.24-.12,.36-.24,.36-.18,0-.28-.09-.31-.27s-.14-.46-.33-.83c-.19-.38-1.02-1.06-2.49-2.06-2.11-1.05-5.22-1.58-9.33-1.58-5.29,0-9.5,1.62-12.64,4.86-3.54,3.68-5.31,8.28-5.31,13.8,0,6.06,1.87,10.8,5.61,14.22,1.89,1.73,3.79,2.9,5.72,3.52,1.73,.56,4.05,.83,6.98,.83,2.17,0,4.26-.47,6.29-1.42s3.54-2.18,4.53-3.71c.56-.89,.89-1.73,1.01-2.5,0-.34,.06-.51,.18-.51,.08,0,.15,.09,.21,.27,.14,.66,.36,1.28,.66,1.88,.2,.46,.47,1,.81,1.64h0Z"/>
      <path class="cls-3" d="M224.34,191.32c0,.16-.06,.24-.18,.24h-14.46c-.18,0-.29-.03-.33-.09s-.06-.13-.06-.21v-.92c0-.18,.03-.28,.09-.31s.13-.04,.21-.04h4.05c.28,0,.42-.29,.42-.86l-.06-30.82c0-3.76-.35-5.63-1.04-5.63h-3.78c-.28,0-.42-.1-.42-.3v-1.04c0-.16,.1-.24,.3-.24h14.46c.18,0,.27,.08,.27,.24v1.1c0,.16-.11,.24-.33,.24h-4.2c-.36,0-.54,.21-.54,.63-.04,18.05-.06,27.37-.06,27.96,0,2.94,.01,4.62,.03,5.04,.14,2.46,.54,3.7,1.19,3.7h4.2c.16,0,.24,.08,.24,.24v1.07Z"/>
      <path class="cls-3" d="M271.05,152.24c0,.24-.1,.36-.3,.36h-4.14c-.42,0-.63,.27-.63,.81,0,.16-.02,2.87-.06,8.12-.04,5.26-.06,8.1-.06,8.53s-.04,3.98-.12,10.66-.12,10.19-.12,10.55c0,.93-.12,1.4-.36,1.4-.28,0-.51-.12-.69-.36-1.81-2.42-7.16-9.31-16.07-20.66-3.16-4.23-6.88-8.95-11.15-14.16-.28-.24-.47-.16-.57,.24-.06,.26-.21,3.91-.45,10.94-.22,7.11-.33,11.58-.33,13.38,0,5.29,.53,7.93,1.58,7.93h3.96c.2,0,.3,.08,.3,.24v1.1c0,.16-.08,.24-.24,.24h-11.72c-.26,0-.39-.06-.39-.18v-1.1c0-.2,.13-.3,.39-.3h3.67c.32,0,.48-.15,.48-.45v-4.38c0-1.17,.14-5.93,.43-14.28,.29-8.35,.43-12.6,.43-12.76,0-3.68-1.26-5.51-3.79-5.51h-2.09c-.16,0-.24-.1-.24-.3v-.98c0-.2,.1-.3,.3-.3h9.42c.26,0,.48,.16,.66,.48s1.82,2.56,4.93,6.72,4.86,6.48,5.26,6.96c4.45,5.92,9.17,12.03,14.16,18.33,.08,.06,.16,.09,.24,.09,.14,0,.23-.28,.27-.83,.02-.38,.02-3.89,0-10.55-.02-6.68-.04-10.28-.06-10.82-.3-5.86-1.01-8.79-2.15-8.79h-4.09c-.26,0-.39-.1-.39-.3v-.98c0-.2,.11-.3,.33-.3h13c.24,0,.36,.08,.36,.24v.98h.04Z"/>
    </g>
  </g>
</svg>